# xmcd CD database file
#
# Track frame offsets:
#	150
#	14812
#	33674
#	47586
#	68923
#	86135
#	101322
#	117709
#	131996
#	149583
#	165220
#	178382
#	192594
#	208306
#	224093
#	240105
#	255967
#	273479
#
# Disc length: 3844 seconds
#
# Revision: 1
# Processed by: cddbd v1.5.2PL0 Copyright (c) Steve Scherf et al.
# Submitted via: CDex 1.51
#
DISCID=1e0f0212
DTITLE=Variuos - Country Radio November 2007
DYEAR=2007
DGENRE=Country
TTITLE0=The Eagles - How Long
TTITLE1=Kenny Chesney - Don't Blink (Single Edit)
TTITLE2=Bucky Covington - It's Good To Be Us (Album Version)
TTITLE3=Sugarland - Stay (Album Version)
TTITLE4=Craig Morgan - International Harvester
TTITLE5=Taylor Swift - Our Song (Album Version)
TTITLE6=Eric Church - Sinners Like Me (Edit)
TTITLE7=Kellie Pickler - Things That Never Crossed A Man's Mind
TTITLE8=Chuck Wicks - Stealing Cinderella
TTITLE9=Heartland - Once A Woman Gets A Hold Of Your Heart
TTITLE10=Jypsi - Love Is A Drug
TTITLE11=Ashton Shepherd - Takin' Off This Pain
TTITLE12=Laura Bryna - Make A Wish
TTITLE13=The Drew Davis Band - Back There All The Time
TTITLE14=Dolly - Better Get To Livin'
TTITLE15=Darren Kozelsky - Running Kind
TTITLE16=Sherry Lynn - Scarecrow Dance
TTITLE17=Johnny Patton - The Blue In Your Eyes
EXTD=YEAR: 2007
EXTT0=
EXTT1=
EXTT2=
EXTT3=
EXTT4=
EXTT5=
EXTT6=
EXTT7=
EXTT8=
EXTT9=
EXTT10=
EXTT11=
EXTT12=
EXTT13=
EXTT14=
EXTT15=
EXTT16=
EXTT17=
PLAYORDER=
